<svg preserveAspectRatio="none" width="100%" height="100%" overflow="visible" style="display: block;" viewBox="0 0 13 13" fill="none" xmlns="http://www.w3.org/2000/svg">
<path id="Vector" d="M5.90087 3.50044L2.90128 0.500586M10.6954 6.50029H0.526217M4.40103 2.00045L5.68966 0.711713C5.82522 0.576154 6.00908 0.5 6.20079 0.5C6.39249 0.5 6.57635 0.576154 6.71192 0.711713L11.0889 5.0891C11.2245 5.22468 11.3006 5.40855 11.3006 5.60027C11.3006 5.792 11.2245 5.97587 11.0889 6.11145L6.53434 10.6664C6.12764 11.0731 5.57607 11.3016 5.00095 11.3016C4.42583 11.3016 3.87426 11.0731 3.46756 10.6664L1.13508 8.33374C0.728443 7.927 0.5 7.37539 0.5 6.80022C0.5 6.22505 0.728443 5.67343 1.13508 5.26669L2.70327 3.69837M11.987 10.3281C11.6371 10.0406 11.395 9.64297 11.3001 9.20016C11.2069 9.64368 10.9645 10.0418 10.6132 10.3281C10.2682 10.6041 10.1002 10.9401 10.1002 11.2851C10.0983 11.4439 10.1278 11.6015 10.1872 11.7489C10.2466 11.8962 10.3347 12.0302 10.4463 12.1433C10.5579 12.2563 10.6909 12.346 10.8374 12.4072C10.984 12.4685 11.1412 12.5 11.3001 12.5C11.4589 12.5 11.6162 12.4685 11.7627 12.4072C11.9093 12.346 12.0422 12.2563 12.1538 12.1433C12.2654 12.0302 12.3535 11.8962 12.4129 11.7489C12.4723 11.6015 12.5019 11.4439 12.4999 11.2851C12.4999 10.9371 12.3289 10.6071 11.987 10.3281Z" stroke="var(--stroke-0, black)" style="stroke:black;stroke-opacity:1;" stroke-linecap="round" stroke-linejoin="round"/>
</svg>
