<svg width="271" height="270" viewBox="0 0 271 270" fill="none" xmlns="http://www.w3.org/2000/svg">
<rect width="270" height="270" rx="120" fill="#94DFE7" style="fill:#94DFE7;fill:color(display-p3 0.5804 0.8745 0.9059);fill-opacity:1;"/>
<path d="M114.667 53.7544C115.236 47.8022 118.017 42.2748 122.466 38.252C126.915 34.2292 132.712 32 138.726 32C144.739 32 150.537 34.2292 154.986 38.252C159.435 42.2748 162.216 47.8022 162.785 53.7544C163.127 57.5994 164.395 61.306 166.483 64.5602C168.571 67.8145 171.417 70.5207 174.78 72.4498C178.143 74.3789 181.924 75.4741 185.802 75.6427C189.681 75.8113 193.543 75.0483 197.063 73.4184C202.527 70.9517 208.72 70.5948 214.434 72.4171C220.149 74.2394 224.977 78.1105 227.979 83.2771C230.982 88.4437 231.943 94.5361 230.676 100.369C229.41 106.201 226.006 111.356 221.127 114.831C217.95 117.047 215.356 119.992 213.566 123.416C211.775 126.839 210.841 130.641 210.841 134.5C210.841 138.359 211.775 142.161 213.566 145.584C215.356 149.008 217.95 151.953 221.127 154.169C226.006 157.644 229.41 162.799 230.676 168.631C231.943 174.464 230.982 180.556 227.979 185.723C224.977 190.889 220.149 194.761 214.434 196.583C208.72 198.405 202.527 198.048 197.063 195.582C193.543 193.952 189.681 193.189 185.802 193.357C181.924 193.526 178.143 194.621 174.78 196.55C171.417 198.479 168.571 201.185 166.483 204.44C164.395 207.694 163.127 211.401 162.785 215.246C162.216 221.198 159.435 226.725 154.986 230.748C150.537 234.771 144.739 237 138.726 237C132.712 237 126.915 234.771 122.466 230.748C118.017 226.725 115.236 221.198 114.667 215.246C114.326 211.399 113.057 207.691 110.968 204.436C108.88 201.18 106.033 198.473 102.669 196.544C99.3044 194.615 95.522 193.52 91.642 193.352C87.7619 193.185 83.8984 193.95 80.3786 195.582C74.9141 198.048 68.7219 198.405 63.0072 196.583C57.2925 194.761 52.4642 190.889 49.462 185.723C46.4598 180.556 45.4985 174.464 46.7652 168.631C48.0318 162.799 51.4359 157.644 56.3147 154.169C59.4918 151.953 62.0852 149.008 63.8756 145.584C65.6661 142.161 66.6008 138.359 66.6008 134.5C66.6008 130.641 65.6661 126.839 63.8756 123.416C62.0852 119.992 59.4918 117.047 56.3147 114.831C51.4427 111.354 48.0447 106.201 46.7811 100.373C45.5175 94.5443 46.4786 88.4569 49.4775 83.2936C52.4765 78.1304 57.2991 74.2602 63.0081 72.4351C68.7171 70.61 74.9047 70.9605 80.3683 73.4184C83.8876 75.0483 87.7501 75.8113 91.6288 75.6427C95.5075 75.4741 99.2882 74.3789 102.651 72.4498C106.014 70.5207 108.86 67.8145 110.948 64.5602C113.036 61.306 114.304 57.5994 114.646 53.7544M169.704 134.504C169.704 151.517 155.832 165.309 138.72 165.309C121.608 165.309 107.737 151.517 107.737 134.504C107.737 117.49 121.608 103.698 138.72 103.698C155.832 103.698 169.704 117.49 169.704 134.504Z" stroke="white" style="stroke:white;stroke-opacity:1;" stroke-width="12" stroke-linecap="round" stroke-linejoin="round"/>
</svg>
