<svg xmlns="http://www.w3.org/2000/svg" width="960" height="540" viewBox="0 0 960 540">
<rect width="100%" height="100%" fill="#ffffff"/>
<text x="480.0" y="42.0" text-anchor="middle" font-size="26" font-weight="700" fill="#111827" font-family="Arial, sans-serif">목록 조회 1회당 JSON 역직렬화 개수</text>
<text transform="rotate(-90 28 264.0)" x="28.0" y="264.0" text-anchor="middle" font-size="15" font-weight="400" fill="#475569" font-family="Arial, sans-serif">개수</text>
<line x1="96" y1="444.0" x2="908" y2="444.0" stroke="#e5e7eb" stroke-width="1"/>
<text x="82.0" y="449.0" text-anchor="end" font-size="13" font-weight="400" fill="#64748b" font-family="Arial, sans-serif">0.00</text>
<line x1="96" y1="372.0" x2="908" y2="372.0" stroke="#e5e7eb" stroke-width="1"/>
<text x="82.0" y="377.0" text-anchor="end" font-size="13" font-weight="400" fill="#64748b" font-family="Arial, sans-serif">2000</text>
<line x1="96" y1="300.0" x2="908" y2="300.0" stroke="#e5e7eb" stroke-width="1"/>
<text x="82.0" y="305.0" text-anchor="end" font-size="13" font-weight="400" fill="#64748b" font-family="Arial, sans-serif">4000</text>
<line x1="96" y1="228.0" x2="908" y2="228.0" stroke="#e5e7eb" stroke-width="1"/>
<text x="82.0" y="233.0" text-anchor="end" font-size="13" font-weight="400" fill="#64748b" font-family="Arial, sans-serif">6000</text>
<line x1="96" y1="156.0" x2="908" y2="156.0" stroke="#e5e7eb" stroke-width="1"/>
<text x="82.0" y="161.0" text-anchor="end" font-size="13" font-weight="400" fill="#64748b" font-family="Arial, sans-serif">8000</text>
<line x1="96" y1="84.0" x2="908" y2="84.0" stroke="#e5e7eb" stroke-width="1"/>
<text x="82.0" y="89.0" text-anchor="end" font-size="13" font-weight="400" fill="#64748b" font-family="Arial, sans-serif">10000</text>
<line x1="96" y1="444" x2="908" y2="444" stroke="#334155" stroke-width="1.5"/>
<rect x="135.7" y="440.4" width="56.8" height="3.6" rx="4" fill="#ef4444"/>
<rect x="202.5" y="443.3" width="56.8" height="0.7" rx="4" fill="#2563eb"/>
<text x="164.1" y="432.4" text-anchor="middle" font-size="12" font-weight="400" fill="#991b1b" font-family="Arial, sans-serif">100</text>
<text x="230.9" y="435.3" text-anchor="middle" font-size="12" font-weight="400" fill="#1e3a8a" font-family="Arial, sans-serif">20.0</text>
<text x="197.5" y="472.0" text-anchor="middle" font-size="14" font-weight="400" fill="#334155" font-family="Arial, sans-serif">100</text>
<rect x="338.7" y="408.0" width="56.8" height="36.0" rx="4" fill="#ef4444"/>
<rect x="405.5" y="443.3" width="56.8" height="0.7" rx="4" fill="#2563eb"/>
<text x="367.1" y="400.0" text-anchor="middle" font-size="12" font-weight="400" fill="#991b1b" font-family="Arial, sans-serif">1000</text>
<text x="433.9" y="435.3" text-anchor="middle" font-size="12" font-weight="400" fill="#1e3a8a" font-family="Arial, sans-serif">20.0</text>
<text x="400.5" y="472.0" text-anchor="middle" font-size="14" font-weight="400" fill="#334155" font-family="Arial, sans-serif">1,000</text>
<rect x="541.7" y="264.0" width="56.8" height="180.0" rx="4" fill="#ef4444"/>
<rect x="608.5" y="443.3" width="56.8" height="0.7" rx="4" fill="#2563eb"/>
<text x="570.1" y="256.0" text-anchor="middle" font-size="12" font-weight="400" fill="#991b1b" font-family="Arial, sans-serif">5000</text>
<text x="636.9" y="435.3" text-anchor="middle" font-size="12" font-weight="400" fill="#1e3a8a" font-family="Arial, sans-serif">20.0</text>
<text x="603.5" y="472.0" text-anchor="middle" font-size="14" font-weight="400" fill="#334155" font-family="Arial, sans-serif">5,000</text>
<rect x="744.7" y="84.0" width="56.8" height="360.0" rx="4" fill="#ef4444"/>
<rect x="811.5" y="443.3" width="56.8" height="0.7" rx="4" fill="#2563eb"/>
<text x="773.1" y="76.0" text-anchor="middle" font-size="12" font-weight="400" fill="#991b1b" font-family="Arial, sans-serif">10000</text>
<text x="839.9" y="435.3" text-anchor="middle" font-size="12" font-weight="400" fill="#1e3a8a" font-family="Arial, sans-serif">20.0</text>
<text x="806.5" y="472.0" text-anchor="middle" font-size="14" font-weight="400" fill="#334155" font-family="Arial, sans-serif">10,000</text>
<rect x="352.0" y="493" width="18" height="18" rx="4" fill="#ef4444"/>
<text x="382.0" y="508.0" text-anchor="start" font-size="14" font-weight="400" fill="#243142" font-family="Arial, sans-serif">개선 전</text>
<rect x="500.0" y="493" width="18" height="18" rx="4" fill="#2563eb"/>
<text x="530.0" y="508.0" text-anchor="start" font-size="14" font-weight="400" fill="#243142" font-family="Arial, sans-serif">개선 후</text>
</svg>