<svg xmlns="http://www.w3.org/2000/svg" width="960" height="540" viewBox="0 0 960 540">
<rect width="100%" height="100%" fill="#ffffff"/>
<text x="480.0" y="42.0" text-anchor="middle" font-size="26" font-weight="700" fill="#111827" font-family="Arial, sans-serif">작업 적용 p95 지연 시간</text>
<text transform="rotate(-90 28 264.0)" x="28.0" y="264.0" text-anchor="middle" font-size="15" font-weight="400" fill="#475569" font-family="Arial, sans-serif">p95 ms</text>
<line x1="96" y1="444.0" x2="908" y2="444.0" stroke="#e5e7eb" stroke-width="1"/>
<text x="82.0" y="449.0" text-anchor="end" font-size="13" font-weight="400" fill="#64748b" font-family="Arial, sans-serif">0.00</text>
<line x1="96" y1="372.0" x2="908" y2="372.0" stroke="#e5e7eb" stroke-width="1"/>
<text x="82.0" y="377.0" text-anchor="end" font-size="13" font-weight="400" fill="#64748b" font-family="Arial, sans-serif">4.00</text>
<line x1="96" y1="300.0" x2="908" y2="300.0" stroke="#e5e7eb" stroke-width="1"/>
<text x="82.0" y="305.0" text-anchor="end" font-size="13" font-weight="400" fill="#64748b" font-family="Arial, sans-serif">8.00</text>
<line x1="96" y1="228.0" x2="908" y2="228.0" stroke="#e5e7eb" stroke-width="1"/>
<text x="82.0" y="233.0" text-anchor="end" font-size="13" font-weight="400" fill="#64748b" font-family="Arial, sans-serif">12.0</text>
<line x1="96" y1="156.0" x2="908" y2="156.0" stroke="#e5e7eb" stroke-width="1"/>
<text x="82.0" y="161.0" text-anchor="end" font-size="13" font-weight="400" fill="#64748b" font-family="Arial, sans-serif">16.0</text>
<line x1="96" y1="84.0" x2="908" y2="84.0" stroke="#e5e7eb" stroke-width="1"/>
<text x="82.0" y="89.0" text-anchor="end" font-size="13" font-weight="400" fill="#64748b" font-family="Arial, sans-serif">20.0</text>
<line x1="96" y1="444" x2="908" y2="444" stroke="#334155" stroke-width="1.5"/>
<rect x="154.3" y="437.3" width="72.0" height="6.7" rx="4" fill="#ef4444"/>
<rect x="236.3" y="436.9" width="72.0" height="7.1" rx="4" fill="#2563eb"/>
<text x="190.3" y="429.3" text-anchor="middle" font-size="12" font-weight="400" fill="#991b1b" font-family="Arial, sans-serif">0.37</text>
<text x="272.3" y="428.9" text-anchor="middle" font-size="12" font-weight="400" fill="#1e3a8a" font-family="Arial, sans-serif">0.39</text>
<text x="231.3" y="472.0" text-anchor="middle" font-size="14" font-weight="400" fill="#334155" font-family="Arial, sans-serif">1,000 elements
10 ops</text>
<rect x="425.0" y="349.0" width="72.0" height="95.0" rx="4" fill="#ef4444"/>
<rect x="507.0" y="422.1" width="72.0" height="21.9" rx="4" fill="#2563eb"/>
<text x="461.0" y="341.0" text-anchor="middle" font-size="12" font-weight="400" fill="#991b1b" font-family="Arial, sans-serif">5.28</text>
<text x="543.0" y="414.1" text-anchor="middle" font-size="12" font-weight="400" fill="#1e3a8a" font-family="Arial, sans-serif">1.22</text>
<text x="502.0" y="472.0" text-anchor="middle" font-size="14" font-weight="400" fill="#334155" font-family="Arial, sans-serif">3,000 elements
50 ops</text>
<rect x="695.7" y="133.1" width="72.0" height="310.9" rx="4" fill="#ef4444"/>
<rect x="777.7" y="408.1" width="72.0" height="35.9" rx="4" fill="#2563eb"/>
<text x="731.7" y="125.1" text-anchor="middle" font-size="12" font-weight="400" fill="#991b1b" font-family="Arial, sans-serif">17.3</text>
<text x="813.7" y="400.1" text-anchor="middle" font-size="12" font-weight="400" fill="#1e3a8a" font-family="Arial, sans-serif">2.00</text>
<text x="772.7" y="472.0" text-anchor="middle" font-size="14" font-weight="400" fill="#334155" font-family="Arial, sans-serif">5,000 elements
100 ops</text>
<rect x="352.0" y="493" width="18" height="18" rx="4" fill="#ef4444"/>
<text x="382.0" y="508.0" text-anchor="start" font-size="14" font-weight="400" fill="#243142" font-family="Arial, sans-serif">리스트 탐색</text>
<rect x="500.0" y="493" width="18" height="18" rx="4" fill="#2563eb"/>
<text x="530.0" y="508.0" text-anchor="start" font-size="14" font-weight="400" fill="#243142" font-family="Arial, sans-serif">배치 Map</text>
</svg>