<svg xmlns="http://www.w3.org/2000/svg" width="960" height="540" viewBox="0 0 960 540">
<rect width="100%" height="100%" fill="#ffffff"/>
<text x="480.0" y="42.0" text-anchor="middle" font-size="26" font-weight="700" fill="#111827" font-family="Arial, sans-serif">Estimated Max RPS With Hikari Pool 10</text>
<text transform="rotate(-90 30 256.0)" x="30.0" y="256.0" text-anchor="middle" font-size="15" font-weight="400" fill="#475569" font-family="Arial, sans-serif">requests/sec</text>
<line x1="110" y1="428.0" x2="908" y2="428.0" stroke="#e5e7eb" stroke-width="1"/>
<text x="96.0" y="433.0" text-anchor="end" font-size="13" font-weight="400" fill="#64748b" font-family="Arial, sans-serif">0.00</text>
<line x1="110" y1="359.2" x2="908" y2="359.2" stroke="#e5e7eb" stroke-width="1"/>
<text x="96.0" y="364.2" text-anchor="end" font-size="13" font-weight="400" fill="#64748b" font-family="Arial, sans-serif">200</text>
<line x1="110" y1="290.4" x2="908" y2="290.4" stroke="#e5e7eb" stroke-width="1"/>
<text x="96.0" y="295.4" text-anchor="end" font-size="13" font-weight="400" fill="#64748b" font-family="Arial, sans-serif">400</text>
<line x1="110" y1="221.6" x2="908" y2="221.6" stroke="#e5e7eb" stroke-width="1"/>
<text x="96.0" y="226.6" text-anchor="end" font-size="13" font-weight="400" fill="#64748b" font-family="Arial, sans-serif">600</text>
<line x1="110" y1="152.8" x2="908" y2="152.8" stroke="#e5e7eb" stroke-width="1"/>
<text x="96.0" y="157.8" text-anchor="end" font-size="13" font-weight="400" fill="#64748b" font-family="Arial, sans-serif">800</text>
<line x1="110" y1="84.0" x2="908" y2="84.0" stroke="#e5e7eb" stroke-width="1"/>
<text x="96.0" y="89.0" text-anchor="end" font-size="13" font-weight="400" fill="#64748b" font-family="Arial, sans-serif">1,000</text>
<line x1="110" y1="428" x2="908" y2="428" stroke="#334155" stroke-width="1.5"/>
<rect x="148.9" y="425.7" width="55.9" height="2.3" rx="4" fill="#ef4444"/>
<rect x="214.8" y="284.7" width="55.9" height="143.3" rx="4" fill="#2563eb"/>
<text x="176.8" y="417.7" text-anchor="middle" font-size="12" font-weight="400" fill="#991b1b" font-family="Arial, sans-serif">6.56</text>
<text x="242.7" y="276.7" text-anchor="middle" font-size="12" font-weight="400" fill="#1e3a8a" font-family="Arial, sans-serif">417</text>
<text x="209.8" y="454.0" text-anchor="middle" font-size="13" font-weight="400" fill="#334155" font-family="Arial, sans-serif"><tspan x="209.8" dy="0">Fortune create</tspan><tspan x="209.8" dy="15">1.5s GMS</tspan></text>
<rect x="348.4" y="427.9" width="55.9" height="0.1" rx="4" fill="#ef4444"/>
<rect x="414.2" y="284.7" width="55.9" height="143.3" rx="4" fill="#2563eb"/>
<text x="376.3" y="419.9" text-anchor="middle" font-size="12" font-weight="400" fill="#991b1b" font-family="Arial, sans-serif">0.33</text>
<text x="442.2" y="276.7" text-anchor="middle" font-size="12" font-weight="400" fill="#1e3a8a" font-family="Arial, sans-serif">417</text>
<text x="409.2" y="454.0" text-anchor="middle" font-size="13" font-weight="400" fill="#334155" font-family="Arial, sans-serif"><tspan x="409.2" dy="0">Fortune create</tspan><tspan x="409.2" dy="15">30s timeout</tspan></text>
<rect x="547.9" y="428.0" width="55.9" height="0.0" rx="4" fill="#ef4444"/>
<rect x="613.8" y="284.7" width="55.9" height="143.3" rx="4" fill="#2563eb"/>
<text x="575.8" y="420.0" text-anchor="middle" font-size="12" font-weight="400" fill="#991b1b" font-family="Arial, sans-serif">0.11</text>
<text x="641.7" y="276.7" text-anchor="middle" font-size="12" font-weight="400" fill="#1e3a8a" font-family="Arial, sans-serif">417</text>
<text x="608.8" y="454.0" text-anchor="middle" font-size="13" font-weight="400" fill="#334155" font-family="Arial, sans-serif"><tspan x="608.8" dy="0">Fortune create</tspan><tspan x="608.8" dy="15">3 retries</tspan></text>
<rect x="747.4" y="425.2" width="55.9" height="2.8" rx="4" fill="#ef4444"/>
<rect x="813.2" y="141.3" width="55.9" height="286.7" rx="4" fill="#2563eb"/>
<text x="775.3" y="417.2" text-anchor="middle" font-size="12" font-weight="400" fill="#991b1b" font-family="Arial, sans-serif">8.25</text>
<text x="841.2" y="133.3" text-anchor="middle" font-size="12" font-weight="400" fill="#1e3a8a" font-family="Arial, sans-serif">833</text>
<text x="808.2" y="454.0" text-anchor="middle" font-size="13" font-weight="400" fill="#334155" font-family="Arial, sans-serif"><tspan x="808.2" dy="0">Inquiry reply</tspan><tspan x="808.2" dy="15">1.2s SMTP</tspan></text>
<rect x="338.0" y="493" width="18" height="18" rx="4" fill="#ef4444"/>
<text x="368.0" y="508.0" text-anchor="start" font-size="14" font-weight="400" fill="#243142" font-family="Arial, sans-serif">Before</text>
<rect x="524.0" y="493" width="18" height="18" rx="4" fill="#2563eb"/>
<text x="554.0" y="508.0" text-anchor="start" font-size="14" font-weight="400" fill="#243142" font-family="Arial, sans-serif">After</text>
</svg>